<svg xmlns="http://www.w3.org/2000/svg" viewBox="0 0 1200 675" width="1200" height="675">
  <defs>
    <linearGradient id="invBg" x1="0%" y1="0%" x2="100%" y2="100%">
      <stop offset="0%" stop-color="#050505" />
      <stop offset="100%" stop-color="#1c1917" />
    </linearGradient>
    <radialGradient id="amberGlow" cx="65%" cy="45%" r="45%">
      <stop offset="0%" stop-color="#f59e0b" stop-opacity="0.3" />
      <stop offset="100%" stop-color="#000000" stop-opacity="0" />
    </radialGradient>
  </defs>
  <rect width="1200" height="675" fill="url(#invBg)" />
  <rect width="1200" height="675" fill="url(#amberGlow)" />
  
  <!-- Inventory Grid UI Mockup -->
  <g stroke="#78350f" stroke-width="1.5" fill="#292524" fill-opacity="0.6">
    <rect x="200" y="160" width="100" height="100" rx="8" />
    <rect x="320" y="160" width="100" height="100" rx="8" />
    <rect x="440" y="160" width="100" height="100" rx="8" />
    <rect x="200" y="280" width="100" height="100" rx="8" />
    <rect x="320" y="280" width="100" height="100" rx="8" fill="#451a03" stroke="#f59e0b" stroke-width="2" />
    <rect x="440" y="280" width="100" height="100" rx="8" />
  </g>

  <!-- 3D Item Inspection Wireframe -->
  <circle cx="850" cy="320" r="140" fill="none" stroke="#f59e0b" stroke-width="1.5" stroke-dasharray="6,6" />
  <polygon points="850,220 930,270 930,370 850,420 770,370 770,270" fill="#78350f" fill-opacity="0.3" stroke="#fbbf24" stroke-width="2" />

  <g font-family="monospace" fill="#fde68a">
    <text x="50" y="70" font-size="18" font-weight="bold" fill="#f59e0b">PHYSICS INSPECTION // ROTATIONAL VIEWER</text>
    <text x="50" y="95" font-size="12" fill="#a8a29e">DIAGNOSTIC KEYCARD [KEY_04] • RAYCAST PICKUP</text>
  </g>
</svg>
